<svg xmlns="http://www.w3.org/2000/svg" viewBox="0 0 218 197">
  <g transform="matrix(1.22623,0,0,1.22623,0.0195294,0.00382149)">
    <path d="M90.05,70.2C89.31,70.8 88.97,71.04 88.69,71.32C71.77,87.92 54.85,104.51 37.98,121.16C37.32,121.81 36.89,122.99 36.87,123.93C36.76,128.74 36.87,133.55 36.8,138.37C36.75,142.27 36.59,141.72 40.18,141.72L134.07,141.72C136.19,141.72 138.31,141.71 140.43,141.74C141.64,141.76 142.06,141.27 142.04,140.05C141.97,134.89 141.89,129.72 142.02,124.56C142.06,122.86 141.52,121.73 140.36,120.58C125.24,105.59 110.16,90.57 95.08,75.54C93.38,73.84 91.78,72.05 90.04,70.21M88.49,160.01L27.83,160.01C21.64,160.01 18.55,157.05 18.52,150.87C18.47,139.95 18.52,129.03 18.49,118.11C18.49,115.44 19.29,113.21 21.22,111.31C41.41,91.48 61.57,71.63 81.75,51.8C86.61,47.02 91.43,47 96.25,51.75C116.1,71.33 135.91,90.95 155.81,110.49C158.99,113.61 160.56,117.01 160.44,121.57C160.19,130.96 160.19,140.36 160.43,149.74C160.59,155.88 155.58,159.96 150.22,160C147.04,160.02 143.85,160 140.67,160L88.5,160" style="fill:white;fill-rule:nonzero;"/>
  </g>
  <g transform="matrix(1.22623,0,0,1.22623,0.0195294,0.00382149)">
    <path d="M177.23,84.9C177.04,87.54 175.31,90.47 171.71,91.99C168.13,93.5 164.7,92.92 161.9,90.21C156.78,85.27 151.76,80.21 146.71,75.19C128.38,56.99 110.07,38.77 91.71,20.59C88.47,17.38 88.97,17.65 85.97,20.59C62.71,43.35 39.49,66.14 16.27,88.94C14.06,91.11 11.67,92.76 8.38,92.65C4.92,92.53 2.49,90.78 0.79,87.95C-0.93,84.18 0.42,79.24 1.89,77.55C2.86,76.44 3.88,75.38 4.93,74.35C28,51.71 51.05,29.07 74.14,6.48C83.07,-2.26 94.95,-2.14 103.84,6.7C126.5,29.22 149.15,51.76 171.8,74.29C172.8,75.29 173.83,76.26 174.78,77.3C176.42,79.11 177.35,81.21 177.23,84.89" style="fill:rgb(71,177,204);fill-rule:nonzero;"/>
  </g>
</svg>
